<svg xmlns="http://www.w3.org/2000/svg" viewBox="0 0 500 500"><g id="freepik--background-complete--inject-75"><rect x="354.67" y="73.05" width="83.96" height="54.82" style="fill:#dbdbdb"></rect><rect x="354.67" y="131.09" width="83.96" height="54.82" style="fill:#ebebeb"></rect><rect x="362.97" y="141.63" width="8.16" height="8.16" style="fill:#fff"></rect><rect x="372.84" y="141.63" width="8.16" height="8.16" style="fill:#c7c7c7"></rect><rect x="382.7" y="141.63" width="8.16" height="8.16" style="fill:#fff"></rect><rect x="392.57" y="141.63" width="8.16" height="8.16" style="fill:#fff"></rect><rect x="402.43" y="141.63" width="8.16" height="8.16" style="fill:#fff"></rect><rect x="412.29" y="141.63" width="8.16" height="8.16" style="fill:#fff"></rect><rect x="422.16" y="141.63" width="8.16" height="8.16" style="fill:#fff"></rect><rect x="362.97" y="151.56" width="8.16" height="8.16" style="fill:#fff"></rect><rect x="372.84" y="151.56" width="8.16" height="8.16" style="fill:#fff"></rect><rect x="382.7" y="151.56" width="8.16" height="8.16" style="fill:#fff"></rect><rect x="392.57" y="151.56" width="8.16" height="8.16" style="fill:#fff"></rect><rect x="402.43" y="151.56" width="8.16" height="8.16" style="fill:#c7c7c7"></rect><rect x="412.29" y="151.56" width="8.16" height="8.16" style="fill:#fff"></rect><rect x="422.16" y="151.56" width="8.16" height="8.16" style="fill:#fff"></rect><rect x="362.97" y="161.49" width="8.16" height="8.16" style="fill:#fff"></rect><rect x="372.84" y="161.49" width="8.16" height="8.16" style="fill:#fff"></rect><rect x="382.7" y="161.49" width="8.16" height="8.16" style="fill:#fff"></rect><rect x="392.57" y="161.49" width="8.16" height="8.16" style="fill:#fff"></rect><rect x="402.43" y="161.49" width="8.16" height="8.16" style="fill:#fff"></rect><rect x="412.29" y="161.49" width="8.16" height="8.16" style="fill:#fff"></rect><rect x="422.16" y="161.49" width="8.16" height="8.16" style="fill:#fff"></rect><rect x="362.97" y="171.43" width="8.16" height="8.16" style="fill:#fff"></rect><rect x="372.84" y="171.43" width="8.16" height="8.16" style="fill:#fff"></rect><rect x="382.7" y="171.43" width="8.16" height="8.16" style="fill:#c7c7c7"></rect><rect x="392.57" y="171.43" width="8.16" height="8.16" style="fill:#fff"></rect><rect x="402.43" y="171.43" width="8.16" height="8.16" style="fill:#fff"></rect><rect x="412.29" y="171.43" width="8.16" height="8.16" style="fill:#fff"></rect><rect x="422.16" y="171.43" width="8.16" height="8.16" style="fill:#fff"></rect><rect x="357.96" y="125.27" width="3.19" height="8.43" style="fill:#c7c7c7"></rect><rect x="365.38" y="125.27" width="3.19" height="8.43" style="fill:#c7c7c7"></rect><rect x="372.8" y="125.27" width="3.19" height="8.43" style="fill:#c7c7c7"></rect><rect x="380.22" y="125.27" width="3.19" height="8.43" style="fill:#c7c7c7"></rect><rect x="387.63" y="125.27" width="3.19" height="8.43" style="fill:#c7c7c7"></rect><rect x="395.05" y="125.27" width="3.19" height="8.43" style="fill:#c7c7c7"></rect><rect x="402.47" y="125.27" width="3.19" height="8.43" style="fill:#c7c7c7"></rect><rect x="409.89" y="125.27" width="3.19" height="8.43" style="fill:#c7c7c7"></rect><rect x="417.31" y="125.27" width="3.19" height="8.43" style="fill:#c7c7c7"></rect><rect x="424.73" y="125.27" width="3.19" height="8.43" style="fill:#c7c7c7"></rect><rect x="432.15" y="125.27" width="3.19" height="8.43" style="fill:#c7c7c7"></rect><path d="M398,78.66a1.34,1.34,0,1,1-1.34-1.34A1.34,1.34,0,0,1,398,78.66Z" style="fill:#263238"></path><rect x="60.59" y="129.06" width="151.39" height="6.64" transform="translate(272.58 264.76) rotate(180)" style="fill:#ebebeb"></rect><rect x="196.86" y="135.7" width="6.64" height="21.96" style="fill:#ebebeb"></rect><rect x="196.86" y="135.7" width="6.64" height="6.79" style="fill:#dbdbdb"></rect><rect x="69.08" y="135.7" width="6.64" height="21.96" style="fill:#ebebeb"></rect><rect x="69.08" y="135.7" width="6.64" height="6.79" style="fill:#dbdbdb"></rect><rect x="157.24" y="102.58" width="42.31" height="10.66" transform="translate(286.3 -70.49) rotate(90)" style="fill:#c7c7c7"></rect><rect x="176.07" y="81.48" width="4.65" height="10.66" transform="translate(265.21 -91.59) rotate(90)" style="fill:#dbdbdb"></rect><rect x="177.54" y="90.63" width="1.73" height="10.66" transform="translate(274.36 -82.44) rotate(90)" style="fill:#dbdbdb"></rect><rect x="175.41" y="115.19" width="4.65" height="11.98" transform="translate(298.92 -56.55) rotate(90)" style="fill:#dbdbdb"></rect><rect x="144.67" y="100.66" width="49.36" height="7.45" transform="translate(273.73 -64.97) rotate(90)" style="fill:#dbdbdb"></rect><rect x="159.89" y="91.6" width="18.98" height="4.47" transform="translate(263.22 -75.54) rotate(90)" style="fill:#ebebeb"></rect><rect x="108.14" y="105.35" width="49.36" height="7.45" transform="translate(303.95 93.28) rotate(135.33)" style="fill:#c7c7c7"></rect><rect x="120.74" y="109.36" width="18.98" height="4.47" transform="translate(301.31 99.4) rotate(135.33)" style="fill:#dbdbdb"></rect><rect x="140.56" y="104" width="37.49" height="12.65" transform="translate(269.63 -48.98) rotate(90)" style="fill:#a6a6a6"></rect><rect x="157.56" y="117.03" width="3.49" height="12.65" transform="translate(282.66 -35.96) rotate(90)" style="fill:#c7c7c7"></rect><rect x="158.63" y="112.31" width="1.35" height="12.65" transform="translate(277.94 -40.68) rotate(90)" style="fill:#c7c7c7"></rect><rect x="170.48" y="107.09" width="35.23" height="8.74" transform="translate(299.55 -76.64) rotate(90)" style="fill:#a6a6a6"></rect><rect x="186.45" y="119.32" width="3.28" height="8.74" transform="translate(311.79 -64.4) rotate(90)" style="fill:#c7c7c7"></rect><rect x="186.45" y="98.37" width="3.28" height="8.74" transform="translate(290.84 -85.35) rotate(90)" style="fill:#c7c7c7"></rect><rect x="187.46" y="102.9" width="1.27" height="8.74" transform="translate(295.36 -80.83) rotate(90)" style="fill:#c7c7c7"></rect><path d="M91.21,83.93c7.45,7.29,8.7,18.58,7.13,28.47,0,.22-.39.16-.39-.05,0-2.25.07-4.48.06-6.7l-.11-.3a14.91,14.91,0,0,1-4.84-5.21c-1.25-2.44-1.74-5.2-2.69-7.76-.09-.25.17-.17.34,0,4.54,3.35,6,6.94,7.28,11.75a39.79,39.79,0,0,0-.79-7.49A25.44,25.44,0,0,0,91,84.12C90.89,84,91.08,83.8,91.21,83.93Z" style="fill:#a6a6a6"></path><path d="M89.81,84.78c-1.29,0-2.09,2.09-3.09,2.69a1,1,0,0,1-1.41-.22c-1-1.39.37-3.09,1.64-4a14.75,14.75,0,0,1-2.65,1.22.92.92,0,0,1-1.2-.72C82.66,81.83,85,81,86.65,81c-.79-.55-3-2-1.84-2.76s3.85,1.39,4.71,2.09c1.27,1,2.78,2.56,2.84,4.17C92.43,86.33,90.79,85.17,89.81,84.78Z" style="fill:#dbdbdb"></path><path d="M90.18,85.09c-1.64-.74-4.79.33-5.06-.29-.54-1.26,2-2.13,3.33-2.3-1.25-.33-3.64-.87-3.57-2.08.09-1.47,3.68-.21,5.49,1.18,2.29,1.76,2.27,3.45,1.89,3.79S90.45,85.22,90.18,85.09Z" style="fill:#ebebeb"></path><path d="M108.18,83.2c-7.73,7-9.4,18.24-8.21,28.18,0,.23.38.18.39,0,.08-2.25.1-4.48.19-6.7,0-.1.08-.2.13-.3a14.88,14.88,0,0,0,5-5c1.34-2.4,1.94-5.14,3-7.66.1-.24-.16-.18-.34-.06-4.65,3.17-6.24,6.71-7.72,11.47a40.31,40.31,0,0,1,1.07-7.45,25.61,25.61,0,0,1,6.67-12.23C108.5,83.28,108.31,83.08,108.18,83.2Z" style="fill:#a6a6a6"></path><path d="M109.55,84.11c1.28.09,2,2.17,3,2.8a1,1,0,0,0,1.42-.16c1-1.35-.25-3.1-1.49-4.1A14.53,14.53,0,0,0,115.07,84a.92.92,0,0,0,1.22-.67c.51-1.87-1.82-2.8-3.44-2.9.81-.51,3.11-1.91,1.94-2.69S110.89,79,110,79.62c-1.31,1-2.87,2.46-3,4.06C106.86,85.56,108.55,84.46,109.55,84.11Z" style="fill:#dbdbdb"></path><path d="M109.16,84.41c1.67-.68,4.78.51,5.07-.1.59-1.24-1.89-2.2-3.25-2.42,1.27-.29,3.68-.74,3.66-2,0-1.48-3.67-.35-5.54,1-2.35,1.66-2.4,3.35-2,3.71S108.89,84.52,109.16,84.41Z" style="fill:#ebebeb"></path><path d="M100.28,101.71a76.21,76.21,0,0,1-2.4,11.08.28.28,0,0,1-.54-.11c.51-3.41,1.43-6.76,1.94-10.18a50.78,50.78,0,0,0,.59-10.45C99.55,86.3,98,80.18,94.23,75.68c-.08-.11.1-.26.18-.16,7.52,8.76,6.32,19.51,6.31,20.47,1.07-3.63,2.16-7.79,6.19-11.48.17-.16.31-.09.28.18-.72,6.73-2.59,10.25-6.49,13.85C100.59,99.6,100.45,100.66,100.28,101.71Z" style="fill:#a6a6a6"></path><path d="M94.16,76.68c-1.35-.6-3.21,1.12-4.55,1.24A1.11,1.11,0,0,1,88.25,77c-.33-1.93,1.94-3,3.75-3.36a16.58,16.58,0,0,1-3.38-.07,1.07,1.07,0,0,1-.88-1.35c.5-2.18,3.37-1.86,5.07-1.08-.54-1-2.13-3.64-.52-3.79s3.31,3.38,3.85,4.54c.8,1.71,1.59,4.06.84,5.76C96.11,79.61,95,77.59,94.16,76.68Z" style="fill:#dbdbdb"></path><path d="M94.39,77.2c-1.32-1.6-5.13-2.07-5.1-2.85.07-1.58,3.12-1.22,4.62-.71-1.13-1-3.35-2.74-2.66-4,.83-1.48,3.91,1.64,5.1,4,1.49,3,.62,4.71.06,4.87C95.64,78.78,94.61,77.46,94.39,77.2Z" style="fill:#ebebeb"></path><path d="M105.23,103.74l3.31,25.32H88.37c.41-2.24,4.17-25.35,4.17-25.35Z" style="fill:#dbdbdb"></path><path d="M108,221.12V468.77H223.86V221.12Zm10.52,71h94.81V342H118.53Zm0-61.77h94.81v49.89H118.53Z" style="fill:#dbdbdb"></path><rect x="55.62" y="221.13" width="52.38" height="247.64" transform="translate(163.62 689.89) rotate(180)" style="fill:#ebebeb"></rect><rect x="190.81" y="230.38" width="22.53" height="49.89" transform="translate(404.14 510.65) rotate(180)" style="fill:#ebebeb"></rect><path d="M213,457H118.27V408.92H213Zm-94.23-.5H212.5V409.42H118.77Z" style="fill:#ebebeb"></path><rect x="156.28" y="422.55" width="18.72" height="6.84" transform="translate(331.27 851.95) rotate(180)" style="fill:#ebebeb"></rect><path d="M213,400.12H118.27V352.05H213Zm-94.23-.5H212.5V352.55H118.77Z" style="fill:#ebebeb"></path><rect x="156.28" y="365.69" width="18.72" height="6.84" transform="translate(331.27 738.21) rotate(180)" style="fill:#ebebeb"></rect><rect x="190.81" y="292.16" width="22.53" height="49.89" transform="translate(404.14 634.2) rotate(180)" style="fill:#ebebeb"></rect><rect x="116.42" y="311.12" width="45.99" height="15.85" transform="translate(458.46 179.63) rotate(90)" style="fill:#a6a6a6"></rect><rect x="134.46" y="321.77" width="9.92" height="15.85" transform="translate(469.11 190.28) rotate(90)" style="fill:#dbdbdb"></rect><rect x="136.48" y="305.88" width="5.89" height="15.85" transform="translate(453.22 174.38) rotate(90)" style="fill:#dbdbdb"></rect><rect x="145.63" y="241.78" width="40.06" height="38.49" transform="translate(331.32 522.05) rotate(180)" style="fill:#ebebeb"></rect><rect x="130.41" y="241.78" width="15.22" height="38.49" transform="translate(276.04 522.05) rotate(180)" style="fill:#c7c7c7"></rect><polygon points="185.69 261.03 145.63 261.03 176.92 262.02 185.69 261.03" style="fill:#c7c7c7"></polygon><polygon points="145.63 275.62 185.69 275.62 154.41 276.61 145.63 275.62" style="fill:#c7c7c7"></polygon><polygon points="185.69 250.27 160.32 250.27 182.87 251.08 185.69 250.27" style="fill:#c7c7c7"></polygon><polygon points="145.63 269.96 171.01 269.96 148.45 270.76 145.63 269.96" style="fill:#c7c7c7"></polygon><polygon points="176.08 245.98 147.46 245.98 152.23 246.47 176.08 245.98" style="fill:#c7c7c7"></polygon><polygon points="181.8 265.15 153.18 265.15 157.95 265.64 181.8 265.15" style="fill:#c7c7c7"></polygon><polygon points="164.2 253.93 145.63 253.93 142.32 255.23 164.2 253.93" style="fill:#ebebeb"></polygon><polygon points="190.81 253.93 172.24 253.93 168.92 255.23 190.81 253.93" style="fill:#ebebeb"></polygon><polygon points="166.98 271.23 185.55 271.23 188.87 272.53 166.98 271.23" style="fill:#ebebeb"></polygon><polygon points="145.63 266.84 130.72 266.84 127.41 268.13 145.63 266.84" style="fill:#c7c7c7"></polygon><polygon points="140.43 261.03 128.87 261.03 130.41 259.97 140.43 261.03" style="fill:#c7c7c7"></polygon><rect x="118.52" y="292.98" width="12.97" height="49.07" style="fill:#ebebeb"></rect><path d="M125,302.65a2.7,2.7,0,1,0-2.7-2.7A2.7,2.7,0,0,0,125,302.65Z" style="fill:#fff"></path><path d="M125,301.5a1.55,1.55,0,1,0-1.55-1.55A1.54,1.54,0,0,0,125,301.5Z" style="fill:#a6a6a6"></path><rect x="119.04" y="321.86" width="11.94" height="12.97" transform="translate(453.35 203.34) rotate(90)" style="fill:#fff"></rect><rect x="147.34" y="331.91" width="49.07" height="10.2" style="fill:#c7c7c7"></rect><path d="M157,337a2.7,2.7,0,1,0-2.7,2.7A2.7,2.7,0,0,0,157,337Z" style="fill:#fff"></path><path d="M155.87,337a1.55,1.55,0,1,0-1.55,1.55A1.54,1.54,0,0,0,155.87,337Z" style="fill:#a6a6a6"></path><rect x="176.74" y="331.91" width="11.94" height="10.2" style="fill:#fff"></rect></g><g id="freepik--Floor--inject-75"><path d="M55.62,468.77c124.53-.61,264.23-.62,388.76,0-124.53.62-264.23.61-388.76,0Z" style="fill:#263238"></path></g><g id="freepik--Plant--inject-75"><path d="M398.21,255.26s24.94-3.49,19.11-33.6C417.32,221.66,389.45,227.92,398.21,255.26Z" style="fill:#FFC100"></path><path d="M398.21,255.26s24.94-3.49,19.11-33.6C417.32,221.66,389.45,227.92,398.21,255.26Z" style="opacity:0.1"></path><path d="M399.47,249a45,45,0,0,1,1.7-4.49c0-.19,0-.39.06-.57,0-.41.07-.83.1-1.24q.1-1.35.18-2.7c.11-1.8.23-3.6.25-5.4,0-.1.15-.09.15,0,0,1.81,0,3.61,0,5.41q-.06,1.35-.15,2.7c0,.2,0,.4,0,.59a53.37,53.37,0,0,1,5-8.55c.86-1.19,1.76-2.35,2.73-3.45s2-2.23,3.05-3.35c.06-.07.17,0,.1.11a44.88,44.88,0,0,0-4.81,6.39c-.75,1.15-1.47,2.32-2.15,3.52l.23-.09c.3-.12.59-.25.89-.36l2-.77,4-1.49c.08,0,.13.1,0,.14-1.32.53-2.63,1.08-3.94,1.65l-1.94.83-1,.4a3.27,3.27,0,0,1-.66.24c-.5.9-1,1.81-1.46,2.73a64.05,64.05,0,0,0-3.05,7.19l-.18.51a14.22,14.22,0,0,1,2.05-1c.85-.4,1.72-.78,2.58-1.18,1.74-.8,3.48-1.62,5.16-2.57a.08.08,0,0,1,.07.14c-1.71.93-3.39,1.93-5.11,2.86-.85.47-1.72.92-2.6,1.35a8.32,8.32,0,0,1-2.34.94,29.52,29.52,0,0,0-1.63,7.07c-.28,3.4-.25,6.84-.33,10.25,0,.06-.09.05-.09,0-.25-3.1-.39-6.22-.4-9.33A26.79,26.79,0,0,1,399.47,249Z" style="fill:#263238"></path><path d="M403.31,231.27a30.43,30.43,0,0,1,.25,5.31s-.08,0-.08,0c-.1-1.76-.12-3.52-.32-5.27C403.15,231.21,403.3,231.17,403.31,231.27Z" style="fill:#263238"></path><path d="M410.44,232.78a19.51,19.51,0,0,0,3.21-1.58c.08,0,.15.08.07.14a12.2,12.2,0,0,1-3.24,1.54C410.42,232.9,410.38,232.8,410.44,232.78Z" style="fill:#263238"></path><path d="M397.41,303.06c0-2.75.07-5.51.11-8.27.05-9.15.12-18.3.29-27.46q.19-10.89.5-21.79a.13.13,0,0,1,.07-.09l0-6c0-.05.06-.07.12-.07s.12,0,.12.08l0,6a.11.11,0,0,1,.06.09c.37,12.93.7,25.86.77,38.8,0,2.63,0,5.26,0,7.89q.13,12.64.09,25.3c0,1.34,0,2.68,0,4,0,7.72-.08,15.44-.08,23.15,0,.42-.46.62-.95.64s-1.16-.2-1.16-.67c0-8.51-.05-17-.05-25.53C397.39,313.79,397.37,308.43,397.41,303.06Z" style="fill:#263238"></path><path d="M407.83,294.69s12-8.89,23.38-2.88S444.38,321,444.38,321s-16.72,2.39-27.25-7.63C407,303.68,407.83,294.69,407.83,294.69Z" style="fill:#FFC100"></path><path d="M404.56,295.24a14.4,14.4,0,0,1,6.95-.91,8.93,8.93,0,0,1,1.47-.14l1.69-.13,3.5-.25c2.36-.17,4.74-.32,7.1-.56.08,0,.1.14,0,.15-2.33.3-4.66.64-7,.87-1.2.12-2.41.25-3.62.33l-.87.09,1.06.26a29.13,29.13,0,0,1,5.44,2.21c.94.17,1.88.44,2.81.66,1.48.35,3,.73,4.44,1.12,2.91.76,5.79,1.62,8.68,2.46a.07.07,0,1,1,0,.14c-2.89-.71-5.79-1.35-8.69-2l-4.22-1-1.1-.26a35.07,35.07,0,0,1,8.53,7.42,45.94,45.94,0,0,1,5.92,9.34c.05.09-.08.17-.12.08a45.56,45.56,0,0,0-7.18-9.41c.06.16.11.32.16.48.22.71.44,1.41.67,2.12.44,1.41.89,2.82,1.31,4.24a.07.07,0,1,1-.14,0c-.51-1.37-1-2.75-1.47-4.12l-.72-2-.36-1.05c0-.11-.07-.22-.11-.33a42.9,42.9,0,0,0-4.26-3.62,32.07,32.07,0,0,0-6.36-3.65c0,.21.07.41.12.61.12.55.24,1.1.35,1.64.23,1.14.46,2.28.68,3.42.45,2.32.73,4.67,1.16,7a.07.07,0,1,1-.14,0c-.54-2.34-1.23-4.63-1.76-7-.26-1.17-.52-2.34-.76-3.51-.12-.55-.22-1.1-.34-1.64-.06-.31-.13-.62-.16-.92l-.66-.27c-3.14-1.17-6.62-2-10-1.37a9.81,9.81,0,0,0-7.22,5.79c-.11.26-.52.1-.46-.17C399.51,298.49,401.92,296.35,404.56,295.24Z" style="fill:#263238"></path><path d="M422.92,305.12c.34,1.52.68,3,1,4.56a32.44,32.44,0,0,1,.84,4.44c0,.06-.08.06-.09,0a34,34,0,0,1-1-4.47c-.3-1.5-.59-3-.89-4.5C422.76,305.07,422.9,305,422.92,305.12Z" style="fill:#263238"></path><path d="M434.53,309c1.52.77,3,1.65,4.6,2.29a.08.08,0,1,1-.06.14,50.81,50.81,0,0,1-4.58-2.37A0,0,0,0,1,434.53,309Z" style="fill:#263238"></path><path d="M405.13,278.37s14.66.93,21.48-8.74,5.29-23.47,5.29-23.47S416.5,248,410.38,255,405.13,278.37,405.13,278.37Z" style="fill:#FFC100"></path><path d="M398.25,292.83c.51-1.57,1.14-3.11,1.73-4.66s1.18-2.94,1.82-4.39a91.08,91.08,0,0,1,4.4-8.64c1-1.78,2.14-3.51,3.28-5.21,0-.26.08-.52.12-.78.06-.46.13-.91.2-1.37.15-.92.31-1.85.46-2.78.34-2,.76-4,1.08-6.06,0-.09.17-.09.15,0-.29,2-.49,4-.77,6-.14,1-.27,2-.42,3-.05.36-.11.71-.17,1.07a102.92,102.92,0,0,1,7.26-9.41c.35-.41.71-.8,1.07-1.2,0-.11.09-.22.13-.34.11-.28.22-.55.32-.84.22-.58.43-1.16.64-1.74.41-1.15.78-2.31,1.09-3.49,0-.1.17-.05.14,0-.29,1.21-.6,2.41-1,3.6-.17.57-.35,1.14-.56,1.7,0,.1-.07.19-.1.28,1.87-2,3.83-4,5.8-5.95a.08.08,0,0,1,.11.11,104.83,104.83,0,0,0-10.39,12.72,10.65,10.65,0,0,1,1.08-.27c1.13-.22,2.27-.38,3.41-.53,2.39-.3,4.77-.6,7.15-1,.1,0,.14.13,0,.15-2.27.45-4.52,1-6.78,1.48-1.07.24-2.14.45-3.21.66a20.44,20.44,0,0,0-2.57.74l-.72,1q-1.6,2.36-3.12,4.78l1.5-.3c1.13-.22,2.27-.42,3.41-.61,2.23-.37,4.47-.76,6.68-1.26.1,0,.13.13,0,.15-2.24.53-4.47,1.14-6.69,1.73-1.07.29-2.16.55-3.24.79l-1.63.35a3.36,3.36,0,0,1-.66.11q-3.21,5.22-6,10.66-1.23,2.4-2.37,4.83c-.79,1.66-1.46,3.36-2.18,5.05C398.66,293.34,398.13,293.2,398.25,292.83Z" style="fill:#263238"></path><path d="M413.26,259.14c.28-1.4.57-2.8.88-4.19,0-.1.17,0,.15,0-.28,1.38-.55,2.75-.8,4.13a38.34,38.34,0,0,1-.83,4.11s0,0,0,0A28.15,28.15,0,0,1,413.26,259.14Z" style="fill:#263238"></path><path d="M421.81,258.73c.68-.34,1.4-.62,2.11-.89l1.11-.43.56-.23a2.65,2.65,0,0,0,.62-.27c.11-.09.18.11.07.13a2.52,2.52,0,0,0-.62.25l-.56.25L424,258c-.7.31-1.43.62-2.16.86A.08.08,0,0,1,421.81,258.73Z" style="fill:#263238"></path><path d="M390.12,266.84s-8.87-16.58-22.37-19.15S346,259,346,259s9.84,12.57,22.23,14.77S390.12,266.84,390.12,266.84Z" style="fill:#FFC100"></path><path d="M358.7,255.12a36.5,36.5,0,0,1,10.59.13l-.6-.32c-1-.51-2-1-3-1.55-2.07-1.07-4.17-2.22-6.34-3.09a.08.08,0,1,1,.06-.14c2.12,1,4.3,1.81,6.42,2.78,1.06.49,2.1,1,3.14,1.54.66.36,1.4.69,2,1.11a37.12,37.12,0,0,1,8.58,2.85l-1.68-1.84c-1.26-1.37-2.5-2.82-3.88-4.07-.07-.07,0-.17.11-.11,1.41,1.28,2.9,2.47,4.27,3.81.67.64,1.3,1.31,1.92,2,.31.35.62.7.92,1.07a35.51,35.51,0,0,1,18.09,24.44c0,.09-.11.15-.14,0A40.7,40.7,0,0,0,389.29,267a39.13,39.13,0,0,0-18.09-10.47,39.74,39.74,0,0,0-12.48-1.13A.14.14,0,0,1,358.7,255.12Z" style="fill:#263238"></path><path d="M346,259s9.85,12.58,22.24,14.77c9.45,1.67,17.23-3.26,20.38-5.68l.68-1.12s-6.39-5.39-18.48-8.5S346,259,346,259Z" style="opacity:0.1"></path><path d="M366.54,249.21a35.32,35.32,0,0,1,3,2,18.93,18.93,0,0,1,2.6,2.38.08.08,0,0,1-.11.11c-.9-.77-1.8-1.55-2.73-2.29a28.85,28.85,0,0,0-2.84-2C366.38,249.29,366.46,249.16,366.54,249.21Z" style="fill:#263238"></path><path d="M359.13,252c.5.21,1,.39,1.51.6l1.51.62c.1,0,.05.22-.06.17l-1.5-.61c-.51-.2-1-.43-1.5-.63C359,252.13,359,252,359.13,252Z" style="fill:#263238"></path><path d="M391.89,287.7s-2.37,16.44-14.73,22.19-27.44,0-27.44,0S355.65,274.32,391.89,287.7Z" style="fill:#FFC100"></path><path d="M358.24,299.2c1.14-.13,2.27-.33,3.4-.53l1.66-.32.87-.17c.33-.31.66-.63,1-.93a50.21,50.21,0,0,1,7.56-5.48,43.17,43.17,0,0,1,4.54-2.33H377l-4.07.18c-2.71.12-5.42.18-8.14.36-.09,0-.09-.15,0-.15,2.72-.19,5.43-.49,8.15-.72l3.95-.35,2-.18.52-.06c.7-.26,1.42-.51,2.13-.73a19.27,19.27,0,0,1,10.48-.58c3.11.8,6.21,2.84,7,6.12,0,.11-.15.19-.2.07-1.16-2.74-4.2-4.12-6.95-4.69a16.7,16.7,0,0,0-5.6-.11,12.78,12.78,0,0,1-.62,2.49c-.34,1.16-.68,2.32-1,3.47-.7,2.31-1.47,4.6-2.16,6.91,0,.09-.17,0-.14,0,.57-2.31,1.06-4.64,1.61-6.95l.84-3.4a19.31,19.31,0,0,1,.62-2.34,28.64,28.64,0,0,0-3.2.76,46,46,0,0,0-5.61,2.05c-.18,1.17-.44,2.33-.71,3.49-.34,1.45-.71,2.89-1.17,4.31,0,.09-.16,0-.14-.05s0-.17,0-.26h0c.27-1.34.57-2.68.85-4,.23-1.08.44-2.17.68-3.25-1.54.69-3.05,1.45-4.51,2.28,0,.34-.11.68-.16,1-.09.56-.19,1.12-.29,1.68-.24,1.27-.49,2.54-.79,3.79a61.16,61.16,0,0,1-2.13,7.15.08.08,0,0,1,0,.1l-.07.08c-.05.06-.14,0-.13-.08.58-2.43,1.23-4.85,1.76-7.3.27-1.22.54-2.44.79-3.66.12-.62.23-1.23.35-1.84,0-.18.05-.37.08-.55a49.05,49.05,0,0,0-4.81,3.21,51.63,51.63,0,0,0-7.37,6.72c-.09.1-.27,0-.18-.14.94-1.24,1.88-2.45,2.94-3.6.63-.66,1.27-1.31,1.93-1.94l-.21,0-1.74.26c-1.14.15-2.29.26-3.43.39C358.18,299.35,358.14,299.21,358.24,299.2Z" style="fill:#263238"></path><path d="M366.93,304.77h0c0-.14,0-.28.07-.43s.12-.35.15-.53h0c.26-1.1.47-2.2.67-3.32,0-.07.14-.05.13,0a13.26,13.26,0,0,1-.94,4.3s-.09,0-.08,0Z" style="fill:#263238"></path><path d="M377.28,304.51a.06.06,0,0,1,.07-.07c.35-1.46.68-2.92,1-4.38.16-.77.32-1.54.47-2.31.08-.42.15-.84.23-1.25a3.5,3.5,0,0,1,.26-1.07.08.08,0,0,1,.14,0,6.89,6.89,0,0,1-.31,2.2c-.15.81-.31,1.61-.48,2.41q-.54,2.43-1.22,4.83c0,.09-.18.07-.17,0Z" style="fill:#263238"></path><path d="M359.37,294.46c2.25-.31,4.51-.64,6.77-.91.1,0,.14.13,0,.15-2.25.33-4.52.61-6.78.91C359.31,294.62,359.27,294.47,359.37,294.46Z" style="fill:#263238"></path><path d="M398.23,249.13s7.56-33.19-28.1-46.62C370.13,202.51,360.25,246.2,398.23,249.13Z" style="fill:#FFC100"></path><path d="M390.53,230.31l-.38-.23c-.68-.37-1.35-.75-2-1.13L384,226.64c-2.72-1.53-5.41-3.11-8.15-4.6-.08,0,0-.18.08-.13,2.75,1.49,5.54,2.89,8.31,4.35l4.08,2.16,1.67.88c-1.19-2.25-2.46-4.46-3.85-6.59-1.87-2.85-3.91-5.55-6-8.2a.12.12,0,0,1,.18-.17,56.52,56.52,0,0,1,8.25,10.11c0-.12,0-.24,0-.35,0-.82-.06-1.65-.07-2.48,0-1.62.05-3.24,0-4.86,0-.1.14-.09.15,0,.06,1.59.26,3.18.35,4.77,0,.8.08,1.59.1,2.39,0,.43,0,.92,0,1.39.73,1.17,1.44,2.36,2.1,3.56a60.23,60.23,0,0,1,3.19,6.68c0-.82.09-1.65.14-2.48.1-1.81.33-3.62.4-5.44,0-.1.16-.1.15,0,0,1.82.05,3.64,0,5.46,0,.91-.05,1.81-.11,2.72l-.06,1a60.23,60.23,0,0,1,2.69,9.12,99.17,99.17,0,0,1,1.33,10s0,0,0,0A53.66,53.66,0,0,0,397,247q-.66-2.34-1.41-4.67c-1.49-.7-2.91-1.57-4.34-2.36s-3-1.64-4.48-2.45c-3-1.63-5.94-3.3-9-4.74-.09,0,0-.17.08-.13,3.11,1.41,6.24,2.75,9.3,4.28,1.52.77,3,1.58,4.49,2.42,1.24.7,2.51,1.39,3.7,2.2-.35-1-.71-2.06-1.11-3.08A88.3,88.3,0,0,0,390.53,230.31Z" style="fill:#263238"></path><path d="M393.53,222.72a.08.08,0,0,1,.16,0c-.13,1.9-.2,3.79-.4,5.68,0,.11-.17.1-.16,0C393.19,226.5,393.4,224.61,393.53,222.72Z" style="fill:#263238"></path><path d="M376.44,229.06c2.23.9,4.48,1.75,6.7,2.68.06,0,0,.13,0,.1-2.25-.84-4.48-1.76-6.72-2.63C376.3,229.17,376.35,229,376.44,229.06Z" style="fill:#263238"></path><path d="M373.05,213.75a58.48,58.48,0,0,1,6.34,3.4c.1.07,0,.23-.1.17-2.07-1.21-4.18-2.37-6.32-3.44C372.88,213.84,373,213.71,373.05,213.75Z" style="fill:#263238"></path><rect x="373.58" y="320.91" width="51.43" height="54.21" transform="translate(798.6 696.03) rotate(180)" style="fill:#455a64"></rect><rect x="425.92" y="340.09" width="2.63" height="128.67" style="fill:#263238"></rect><rect x="370.32" y="340.09" width="2.63" height="128.67" style="fill:#263238"></rect><rect x="396.72" y="340.09" width="2.63" height="128.67" style="fill:#263238"></rect><rect x="371.64" y="371.65" width="55.6" height="7.51" transform="translate(798.88 750.8) rotate(180)" style="fill:#263238"></rect></g><g id="freepik--character-2--inject-75"><path d="M277.57,341.31l-37.71,30.47c-7.23,5.79-13.47,11-16.45,14a.12.12,0,0,0,0,.05c-1.12,1.13-1.77,1.93-1.81,2.32,0,0,0,.06,0,.08.27,3.32,44.81,62.5,47.06,64s6.82-4.75,6.92-8.42-6.82-34-6.82-34l37.37-30.8Z" style="fill:#ad6359"></path><path d="M247.6,365.53l-7.74,6.25c-7.23,5.79-13.47,11-16.45,14a.12.12,0,0,0,0,.05,12.83,12.83,0,0,0-1.81,2.32s0,.06,0,.08c.27,3.32,44.81,62.5,47.06,64s6.82-4.75,6.92-8.42-6.82-34-6.82-34l7.93-6.24Z" style="fill:#ebebeb"></path><path d="M268.6,452.25c-2.25-1.54-46.8-60.71-47.06-64-.12-1.27,8.12-8.26,18.33-16.42l.32-.26,29.16,37.86-.65.47s6.92,30.28,6.82,34S270.85,453.8,268.6,452.25Z" style="fill:#455a64"></path><path d="M270.39,449.85c-7.26-10.16-37.52-50.44-45.47-59.94-.07-.07-.12,0-.06,0,7,10.23,37.56,50.27,45.37,60C270.39,450.18,270.55,450.07,270.39,449.85Z" style="fill:#263238"></path><path d="M271,413.15c-2.23-4.47-6.44-8.82-11.5-9.71-.19,0-.24.24-.1.34a69.31,69.31,0,0,1,11.09,9.73A.32.32,0,0,0,271,413.15Z" style="fill:#263238"></path><path d="M271.42,417.27c-2.22-4.47-6.44-8.82-11.49-9.71-.2,0-.24.24-.11.34a68.88,68.88,0,0,1,11.09,9.73A.32.32,0,0,0,271.42,417.27Z" style="fill:#263238"></path><path d="M271.85,421.39c-2.23-4.47-6.44-8.82-11.5-9.72-.19,0-.24.25-.1.35a69.31,69.31,0,0,1,11.09,9.73A.32.32,0,0,0,271.85,421.39Z" style="fill:#263238"></path><path d="M298,305c-2.67,13.19-57.37,65.79-57.37,65.79l38.14,44s77.66-77.52,73.6-106.65C348.8,282.84,310.86,181,310.86,181H267.1S300.57,292.06,298,305Z" style="fill:#37474f"></path><path d="M283.06,404.36c-5.07-6.3-3.53-4.57-8.67-10.82-2.51-3.05-19-23.14-21.89-25.58a.09.09,0,0,0-.13.11c1.91,3.22,18.79,23,21.37,26,5.25,6.15,3.81,4.32,9.13,10.41A.12.12,0,0,0,283.06,404.36Z" style="fill:#263238"></path><path d="M303.38,298.6c-.62-3.3-1.33-6.57-2-9.85q-2.13-10-4.52-20-4.72-19.81-10.28-39.39c-3.73-13.09-7.67-26.17-12.21-39-.56-1.58-1.14-3.17-1.72-4.75a.1.1,0,0,0-.19.06c3.93,12.87,8,25.69,11.67,38.63s7.07,25.84,10.28,38.85c1.61,6.53,3.1,13.09,4.57,19.65q1.08,4.85,2.1,9.69a69.38,69.38,0,0,1,1.84,10,15.19,15.19,0,0,1-2.58,9c-1.64,2.68-3.57,5.21-5.43,7.74-3.74,5.07-39.36,44.76-40.51,45.84-.09.09,0,.21.14.13,4.78-4.29,35-37,38.84-42.06q2.85-3.76,5.57-7.61a30,30,0,0,0,4.34-7.67C304.27,304.79,304,301.67,303.38,298.6Z" style="fill:#263238"></path><path d="M284.53,395.64s9.45,46,9.44,46c.13,9.27.41,17.39.94,21.57a.17.17,0,0,0,0,.07,6.53,6.53,0,0,0,.72,2.85l.06.06c2.78,1.83,76.84,3,79.44,2.15s.44-8.29-2.4-10.63-31-15.46-31-15.46l-9.91-46Z" style="fill:#ad6359"></path><path d="M375.15,468.37c-2.6.83-76.67-.32-79.45-2.15l-.06-.06a6.58,6.58,0,0,1-.72-2.85.17.17,0,0,1,0-.07c-.54-4.18-.81-12.3-.94-21.56,0,0-1.63-8-1.63-8h47.53l1.85,8.6s28.16,13.13,31,15.47S377.75,467.55,375.15,468.37Z" style="fill:#ebebeb"></path><path d="M375.14,468.37c-2.6.83-76.66-.32-79.44-2.15-1.08-.68-1.54-11.48-1.72-24.55v-.41l47.78.21,0,.81s28.15,13.12,31,15.46S377.74,467.55,375.14,468.37Z" style="fill:#455a64"></path><path d="M374.35,465.49c-12.48-.5-62.86-1.34-75.23-.89-.1,0-.11.07,0,.08,12.35.77,62.74,1.2,75.23,1C374.61,465.69,374.61,465.5,374.35,465.49Z" style="fill:#263238"></path><path d="M345.74,442.49c-4.89-1-10.91-.33-14.72,3.11-.15.13,0,.34.2.29a69.23,69.23,0,0,1,14.49-2.78A.31.31,0,0,0,345.74,442.49Z" style="fill:#263238"></path><path d="M349.26,444.68c-4.9-1-10.92-.33-14.73,3.11-.15.13,0,.34.2.29a69.45,69.45,0,0,1,14.5-2.78A.31.31,0,0,0,349.26,444.68Z" style="fill:#263238"></path><path d="M352.77,446.87c-4.9-1-10.92-.33-14.73,3.11-.14.13,0,.34.21.29a69.23,69.23,0,0,1,14.49-2.78A.31.31,0,0,0,352.77,446.87Z" style="fill:#263238"></path><path d="M306.64,181a178.79,178.79,0,0,0-3.75,21.84c-.92,9.16-2.06,17.26-3.28,18.27-1.39,1.14-8.3,5.58-10.63,7,0,0,21.57,65.37,27.13,87.16,8.06,31.59,27.39,126.35,27.39,126.35H292s-15.66-90.22-22.5-120.3c-5.87-25.78-28.34-103.12-28.34-103.12A44.91,44.91,0,0,1,243,181S306.65,180.92,306.64,181Z" style="fill:#37474f"></path><path d="M341.64,431.56c-8.09-.05-5.77-.15-13.86-.1-4,0-30,.2-33.67.87a.08.08,0,0,0,0,.16c3.71.56,29.72-.07,33.68-.17,8.09-.2,5.76-.23,13.85-.53A.12.12,0,0,0,341.64,431.56Z" style="fill:#263238"></path><path d="M303.25,218.48a99.28,99.28,0,0,0-14.2,9.5c-.17.14,0,.42.19.3,4.82-3,9.75-5.95,14.39-9.23A.34.34,0,0,0,303.25,218.48Z" style="fill:#263238"></path><path d="M299.32,182.92c0-.18-.36-.17-.33,0a171.08,171.08,0,0,1,1.81,17.37c.18,2.69.32,17.7-4.45,17.35-.8-.06-1.31-.76-1.62-1.91a18.52,18.52,0,0,1-.08-4.59c0-3.16,0-6.3-.25-9.45a85.38,85.38,0,0,0-2.89-17.33.15.15,0,0,0-.29.06,162.24,162.24,0,0,1,2.32,24.19c0,3.91-1,10,3.07,9.92s5.29-10.07,5.38-12.78A88.49,88.49,0,0,0,299.32,182.92Z" style="fill:#263238"></path><path d="M296.53,218a24.76,24.76,0,0,0-.56,3.21,6.89,6.89,0,0,0-.05,2.56.18.18,0,0,0,.33,0,8.86,8.86,0,0,0,.7-2.6c.2-1,.43-2,.6-3A.52.52,0,0,0,296.53,218Z" style="fill:#263238"></path><path d="M286,403.19c-.14-1.19-.3-2.38-.46-3.56-.33-2.29-.71-4.56-1.06-6.84-.71-4.57-1.49-9.13-2.3-13.69-1.62-9.09-3.48-18.15-5.45-27.17-1.11-5.1-2.4-10.14-3.77-15.18-.09-.35-.59-.18-.52.16.82,4.61,1.62,9.22,2.57,13.81s1.87,9.15,2.78,13.74c1.8,9.05,3.48,18.13,5.27,27.19.5,2.56,1,5.12,1.46,7.68.25,1.28.51,2.55.78,3.82s.67,2.52.88,3.8c0,.12.2.06.18-.06C286.19,405.67,286.17,404.42,286,403.19Z" style="fill:#263238"></path><path d="M321.53,334.79c-1.72-8.54-4-17-6.35-25.36-4.68-16.89-10.19-33.54-15.68-50.18q-2.38-7.2-4.75-14.39c-.79-2.39-4.68-15.32-5.16-16.55a.1.1,0,0,0-.2.06c1.11,4.41,2.64,10.83,3.93,15.19s2.65,8.58,4,12.87c2.63,8.43,5.3,16.84,7.86,25.29,5,16.71,10.06,33.4,14.15,50.37,1.15,4.76,2.29,9.5,3.34,14.28s1.94,9.56,2.94,14.34c0,.13.25.1.23,0C325,352,323.25,343.36,321.53,334.79Z" style="fill:#263238"></path><path d="M289.52,379.48c-2.83-16.3-6.22-32.51-10-48.61s-8-32.27-12.63-48.23-9.77-31.78-15.29-47.45a200.42,200.42,0,0,1-7-22.58c-1.7-7.61-2.56-15.84-.79-23.52a39.37,39.37,0,0,1,1.76-5.72c.05-.13-.13-.24-.19-.11-6.19,14.43-2.17,30.21,2.54,44.43,2.58,7.79,5.34,15.53,7.89,23.33q3.91,12,7.51,24.14c4.75,16,9.16,32.11,13.12,48.34s7.47,32.55,10.56,48.95,5.72,33,8.37,49.55c.35,2.15.62,4.31.9,6.47,0,.12.21.12.19,0C294.51,412.08,292.35,395.75,289.52,379.48Z" style="fill:#263238"></path><path d="M238.24,200.72c.21.18,77.3-10.53,77.89-11.42.82-1.26-31.06-78.58-40.43-87.77-2-2-7.68-1.79-12.34-.52a22.3,22.3,0,0,0-3.55,1.26l-.11.06a8.7,8.7,0,0,0-2.5,1.69c-11.7,12.41-14.95,47.14-16,58.56C239.51,181.42,237.51,200.09,238.24,200.72Z" style="fill:#ebebeb"></path><path d="M263.36,101s24.07,24.31,26.43,33,2.75,65.21,2.75,65.21L233,207.68s6-32.56,5.88-34.56c0,0,3.39-37.22,9.63-53.81C255.57,100.45,263.36,101,263.36,101Z" style="fill:#263238"></path><path d="M276.14,101.06s14.31,28.9,15.27,31.69S312.15,196,312.15,196l6.55-5.14-10-24.92S283,107.61,276.14,101.06Z" style="fill:#263238"></path><path d="M264.79,110.32c18.73,10.07,49.8,35.92,51,43.35.85,5.38,1.1,10.7-.91,13.59-4.08,5.88-13.35,5.72-16.71,3.86-14.69-8.13-31.09-26.88-42.09-46.75C246.41,106.94,258.68,107,264.79,110.32Z" style="fill:#263238"></path><path d="M306.93,142.16c-8-7-17.63-14.63-26-21.24l-3.79-3a144.49,144.49,0,0,1,29.78,24.19Z" style="fill:#37474f"></path><path d="M259.27,129.89a143.13,143.13,0,0,0,22.79,28q3.26,3.15,6.7,6.07c4.48,3.75,9.48,7.8,15.63,7.55a19.49,19.49,0,0,0,8.56-2.3,16.21,16.21,0,0,1-8.52,3.16c-6.41.51-11.64-3.89-16.23-7.75-2.31-2-4.55-4-6.68-6.17a132.73,132.73,0,0,1-22.25-28.58Z" style="fill:#37474f"></path><path d="M262.94,135.79a10,10,0,0,1-4-3.87,32.23,32.23,0,0,1,4,3.87Z" style="fill:#37474f"></path><path d="M272.21,114.73c-4.1-2.34-13.16-8.1-17.51-4.67-3.78,4,1.32,13.55,3.33,17.77a39.1,39.1,0,0,1-4.53-8.73c-.81-2.34-1.49-5-.85-7.47,3-8.28,15.3-.31,19.56,3.1Z" style="fill:#37474f"></path><path d="M302.09,132c-10-3.9-13.33-2.8-16.12-1.53-5.83,2.63-14.42,9.35-12.05,13.41,2.16,3.67,14.17-7.6,14.17-7.6s-14.14,9.47-10.74,13.42,16.6-9.93,16.6-9.93-14.3,10.05-10.15,13.56c3.14,2.66,15.8-9.23,15.8-9.23s-12.24,8.72-9.12,11.59c3.44,3.17,15.81-7.07,15.81-7.07,2.34.48,5.22.7,5.94.4C313.33,148.52,308.82,134.58,302.09,132Z" style="fill:#ad6359"></path><path d="M292.76,132.66c-1.7,1.05-3.42,2.1-5,3.3s-3.16,2.46-4.64,3.8a33.36,33.36,0,0,0-5.27,5.78c3-3.57,8.66-7.95,10.26-9.15s3.13-2.48,4.73-3.67C292.85,132.69,292.81,132.63,292.76,132.66Z" style="fill:#263238"></path><path d="M297.2,138.36c-2.11,1.44-4.26,2.79-6.31,4.32s-3.85,3.15-5.78,4.81c-.15.12,0,.16.12,0,2-1.58,4-2.89,6-4.45s4-3.19,6-4.67C297.27,138.39,297.23,138.34,297.2,138.36Z" style="fill:#263238"></path><path d="M301.89,142.57a57.18,57.18,0,0,0-9.15,7.34c-.15.14,0,.17.16,0,3-2.5,5.33-4.48,9.06-7.26C302,142.64,302,142.53,301.89,142.57Z" style="fill:#263238"></path><path d="M277,111.08c-3.54,1.2-12.84-3.23-15.92-8.16-.21-.34-.08-12.4-.24-15.2,0-.58,17.78,3.26,17.78,3.26a44.6,44.6,0,0,0-1.08,10.84,6.63,6.63,0,0,0,.18,1.14c0,.05,0,.11,0,.19C278.28,105.31,280.83,109.79,277,111.08Z" style="fill:#ad6359"></path><path d="M277.77,103a1.81,1.81,0,0,0,0,.19,12,12,0,0,1-1.79.19c-10.34.36-13.8-12.41-14.51-15.65C264.64,88,278.66,91,278.66,91a45,45,0,0,0-1.09,10.84A6.43,6.43,0,0,0,277.77,103Z" style="fill:#263238"></path><path d="M252.84,68.38c-.52,6.49,6.58,23.35,11.77,26.31,7.53,4.3,17.92,2.57,21.08-6,3.06-8.34-6.58-30.16-12.19-32.65C265.22,52.34,253.59,58.78,252.84,68.38Z" style="fill:#ad6359"></path><path d="M270.41,75.52s-.07.09-.05.14c.51,1.12.9,2.49,0,3.3,0,0,0,.08,0,.06C271.61,78.32,271.07,76.5,270.41,75.52Z" style="fill:#263238"></path><path d="M268.9,74.75c-1.89.62-.51,4.35,1.24,3.78S270.48,74.23,268.9,74.75Z" style="fill:#263238"></path><path d="M277.17,73.23s.11,0,.12.07c.39,1.17,1,2.44,2.23,2.44,0,0,.05.06,0,.07C278.19,76.1,277.35,74.4,277.17,73.23Z" style="fill:#263238"></path><path d="M277.75,71.64c1.81-.82,3.33,2.85,1.66,3.62S276.24,72.34,277.75,71.64Z" style="fill:#263238"></path><path d="M266.79,73.59a13.91,13.91,0,0,0,1.26-1,2.66,2.66,0,0,0,1.08-1.31.85.85,0,0,0-.48-.91,2.08,2.08,0,0,0-2,.53,3.07,3.07,0,0,0-1.19,1.85A.89.89,0,0,0,266.79,73.59Z" style="fill:#263238"></path><path d="M278.5,69.23a14.76,14.76,0,0,1-1.63.17,2.68,2.68,0,0,1-1.68-.15.85.85,0,0,1-.32-1,2.11,2.11,0,0,1,1.82-1.09,3,3,0,0,1,2.16.45A.9.9,0,0,1,278.5,69.23Z" style="fill:#263238"></path><path d="M273.31,86.64a1.85,1.85,0,0,0,1.22.32,3.15,3.15,0,0,0,1.13-.75s.09,0,.08,0a1.66,1.66,0,0,1-1.24,1.17,1.31,1.31,0,0,1-1.29-.69C273.17,86.67,273.25,86.62,273.31,86.64Z" style="fill:#263238"></path><path d="M273.24,82.73a4.17,4.17,0,0,0,3.27.78,5.15,5.15,0,0,0,1.44-.46.9.9,0,0,0,.26-.13l.24-.13a.32.32,0,0,0,.14-.35h0a.43.43,0,0,0-.05-.12h0l0-.1c-.31-.9-.89-2.22-.89-2.22.38,0,2.31.18,2.12-.28a63.49,63.49,0,0,0-5.94-11.34c-.07-.12-.25,0-.2.11,1.45,3.68,3.53,7.08,5,10.75a7.2,7.2,0,0,0-2.06.12c-.11.09,1.18,2.54,1.28,3a.12.12,0,0,1,0,0,5.82,5.82,0,0,1-4.54.24C273.2,82.55,273.14,82.67,273.24,82.73Z" style="fill:#263238"></path><path d="M285.69,88.66c-3.16,8.6-13.55,10.33-21.08,6-2.1-1.2-4.52-4.69-6.62-8.84L260.21,78s3.2,4.85,5.91,5.66c3.72,1.12,10,0,11.08-4l2-.69s5,1.45,5.83-2.35C286.3,81.39,286.74,85.81,285.69,88.66Z" style="fill:#263238;opacity:0.30000000000000004"></path><path d="M257.21,83.34c2.72-.13,3.41-2.73,3.53-4.5s-3.6-11.09-3.16-13.83,2.6-4.9,4.86-5,5.81,1.74,7.28,1.09.74-4,1.8-4.4c2.32-.78,6.69,4.14,8,6.54,0,0-3.58-10.93-15-8.21-11.18,2.65-12.19,11.28-12.05,14.86C252.67,76.79,257.21,83.34,257.21,83.34Z" style="fill:#263238"></path><path d="M260.67,81.26s-5.32-4.7-7.55-2.67,2.74,9.51,6,9.9a3.16,3.16,0,0,0,3.71-2.64Z" style="fill:#ad6359"></path><path d="M254.6,80.7s0,.07,0,.08c2.32.35,3.91,2,5.18,3.88a1.75,1.75,0,0,0-2.65.15s0,.12.09.1a1.93,1.93,0,0,1,2.23.15,9.53,9.53,0,0,1,1.4,1.44c.15.17.46,0,.34-.22l0,0C260.56,83.53,257.55,80.27,254.6,80.7Z" style="fill:#263238"></path><polygon points="277.77 102.27 277.42 109.9 260.88 98.19 260.43 102.53 277.12 116.47 277.81 110.72 281.85 113.48 280.04 105.25 277.77 102.27" style="fill:#ebebeb"></polygon><path d="M260.43,102.53c5.69,4.49,11.28,9.1,16.84,13.75l-.4.16.73-5.74,0-.36.29.2,4,2.8-.26.17c-.58-2.75-1.11-5.51-1.65-8.26.7,2.86,1.41,5.72,2.07,8.59.06,0-4.32-2.86-4.42-2.94l.34-.15-.67,5.75-.05.44c-5.69-4.73-11.34-9.51-16.88-14.41Z" style="fill:#263238"></path><path d="M260.56,103l-.74-4.7s8.57,5.69,9.38,6.8L278.66,118S262.94,108.14,260.56,103Z" style="fill:#263238"></path></g><g id="freepik--character-1--inject-75"><path d="M125.46,469.86c2.57.8,77.67-.82,80.41-2.65,1.06-.68-5.38-71.82-5.38-71.82l-47.63.92,5.42,47.58S130.57,457,127.76,459.35,122.88,469.06,125.46,469.86Z" style="fill:#eb9481"></path><path d="M125.45,469.86c2.57.8,77.68-.82,80.42-2.65.33-.21.43-7.43-.76-16.84-13.62,2.28-62.23,9.75-66,7.52-2.64-1.55-.3-4,1.86-5.61-6.2,3.09-12,6.07-13.19,7.07C125,461.67,122.89,469.07,125.45,469.86Z" style="fill:#263238"></path><path d="M156.94,432.48l46.76-.66s-9.27-112-8.88-114.14c.49-2.76,33.67-132.84,33.67-132.84H183.86S148.67,306.08,147.4,317.76C145.36,336.62,156.94,432.48,156.94,432.48Z" style="fill:#FFC100"></path><path d="M156.94,432.48l46.76-.66s-9.27-112-8.88-114.14c.49-2.76,33.67-132.84,33.67-132.84H183.86S148.67,306.08,147.4,317.76C145.36,336.62,156.94,432.48,156.94,432.48Z" style="opacity:0.5"></path><path d="M199.49,421.27c-2.76-.2-5.55-.17-8.32-.21s-5.55,0-8.32,0q-8.32.07-16.64.29c-1.51.05-3,.09-4.54.16s-3.24.35-4.86.41a.1.1,0,0,0,0,.2c1.36,0,2.72.22,4.08.25s2.83.05,4.24.05q4.17,0,8.32,0c5.54,0,11.09-.12,16.63-.35,3.13-.13,6.29-.17,9.41-.48A.14.14,0,0,0,199.49,421.27Z" style="fill:#263238"></path><path d="M218.67,195.34c-4,14.14-7.64,28.41-11.22,42.66s-7.14,28.52-10.69,42.79q-2.67,10.69-5.33,21.4c-1.72,6.94-3.73,13.92-4.16,21.1s.49,14.65,1.11,21.91,1.23,14.61,1.87,21.91c1.28,14.6,2.5,29.22,4.09,43.79.2,1.83.4,3.65.58,5.48,0,.15.26.15.25,0-1-14.61-2-29.22-3.14-43.82q-.89-10.95-1.79-21.91c-.6-7.28-1.45-14.59-1.68-21.9s1.12-14.45,2.9-21.57,3.5-14,5.24-20.94q5.36-21.39,10.69-42.79c4-16,7.92-32,11.41-48.07C218.82,195.29,218.69,195.26,218.67,195.34Z" style="fill:#263238"></path><path d="M228.49,184.84s-14.24,55.8-24.2,95.09l-19-95.09Z" style="fill:#263238"></path><path d="M181.54,470c2.57.81,77.67-.82,80.42-2.65,1.05-.67-2.87-71.85-2.87-71.85l-47,.91,2.27,47.62s-27.71,13.13-30.51,15.46S179,469.24,181.54,470Z" style="fill:#eb9481"></path><path d="M181.54,470c2.57.8,77.68-.82,80.41-2.65.34-.21.26-7.24,0-16.85-13.62,2.29-63,9.76-66.77,7.53-2.64-1.55-.31-4,1.86-5.6-6.21,3.09-12,6.07-13.2,7.07C181.06,461.84,179,469.24,181.54,470Z" style="fill:#263238"></path><path d="M185.3,184.82s1.3,21.34,6.4,38.19c.41,1.39.85,2.76,1.32,4.07A80,80,0,0,1,206,233.53s3.22,81.62,3.16,86.69c-.21,19,4.63,111.32,4.63,111.32l47.15-.44S256,326.65,256,319.7c0-6.71-3.21-49.1-6.06-85.84,0,0,4.2-11.74,3.73-17.67-1.12-14.37-7.57-31.35-7.57-31.35Z" style="fill:#FFC100"></path><path d="M185.3,184.82s1.3,21.34,6.4,38.19c.41,1.39.85,2.76,1.32,4.07A80,80,0,0,1,206,233.53s3.22,81.62,3.16,86.69c-.21,19,4.63,111.32,4.63,111.32l47.15-.44S256,326.65,256,319.7c0-6.71-3.21-49.1-6.06-85.84,0,0,4.2-11.74,3.73-17.67-1.12-14.37-7.57-31.35-7.57-31.35Z" style="opacity:0.5"></path><path d="M195.6,213.48c-.18-1.18-.35-2.36-.54-3.54-.33-2.17-.77-4.32-1.15-6.47-.86-4.89-1.75-9.8-2.84-14.64a.11.11,0,0,0-.21,0q.28,2.94.69,5.86c.28,1.95.47,3.91.75,5.85.54,3.87,1.08,7.74,1.74,11.58.25,1.48,1.18,4.14-1,4.6-1.69.36-2.92-1.3-3.42-2.69a33.26,33.26,0,0,1-1.14-5.33q-.51-2.92-.93-5.87-.9-6.41-2-12.78c0-.13-.21-.09-.21,0a129.86,129.86,0,0,0,1,13.08c.27,2.08.58,4.16.93,6.22a22.19,22.19,0,0,0,1.43,5.8,4.7,4.7,0,0,0,3.53,2.83h.1a.18.18,0,0,0-.06.13c0,.69,0,1.39.08,2.08s.21,1.36.34,2a14.08,14.08,0,0,0,.53,2,9.47,9.47,0,0,0,.37.93,8.46,8.46,0,0,0,.56.86.12.12,0,0,0,.22-.07h0c0-.11,0-.22,0-.34v-.06h0c0-.2,0-.4,0-.6s-.13-.67-.2-1c-.14-.65-.32-1.31-.5-2s-.32-1.31-.48-2-.4-1.33-.55-2c0,0,0,0,0-.06a3.1,3.1,0,0,0,3-1.87A5.26,5.26,0,0,0,195.6,213.48Z" style="fill:#263238"></path><path d="M209.78,235.15a38.5,38.5,0,0,0-4.43-2.92,44.05,44.05,0,0,0-5.06-2.62c-3.41-1.48-6.93-2.49-10.45-3.65-.1,0-.17.14-.07.18,3.41,1.35,6.68,3.15,10,4.76,1.63.8,3.27,1.55,4.92,2.28s3.3,1.59,5,2.21A.14.14,0,0,0,209.78,235.15Z" style="fill:#263238"></path><path d="M236.4,205.43a29,29,0,0,1-7.11-1c-1.07-.27-2.12-.62-3.17-1a8.25,8.25,0,0,1-2.87-1.44c-1.62-1.39-2.37-3.59-3.07-5.53a52.85,52.85,0,0,1-1.86-6.73c0-.11-.19-.07-.2,0a26.31,26.31,0,0,0,1,7.64c.58,2.1,1.36,4.45,3.06,5.93a12,12,0,0,0,6.52,2.38,29.94,29.94,0,0,0,7.74-.11A.13.13,0,0,0,236.4,205.43Z" style="fill:#263238"></path><path d="M258.83,422c-2.76-.2-5.56-.17-8.33-.2s-5.54-.05-8.32,0q-8.31.08-16.63.29c-1.51.05-3,.09-4.55.16s-3.23.36-4.85.42a.1.1,0,0,0,0,.19c1.36,0,2.73.22,4.09.26s2.83.05,4.24.05c2.77,0,5.55,0,8.32,0,5.54,0,11.09-.12,16.63-.35,3.13-.12,6.29-.16,9.41-.48A.14.14,0,0,0,258.83,422Z" style="fill:#263238"></path><path d="M253.08,415.82h0a.58.58,0,0,0,.55-.6L243,232.45c.13-.8,3.13-11,3.4-16.23.28-5.51-5.42-27-5.66-27.91a.58.58,0,0,0-.7-.4.57.57,0,0,0-.41.7c.06.22,5.9,22.22,5.62,27.55s-3.38,16.07-3.4,16.16,10.64,183,10.64,183A.58.58,0,0,0,253.08,415.82Z" style="fill:#263238"></path><path d="M248.38,112.9c-.12,3.71,1.77,5,1.81,7,0,0-8.59,3.69-22.91,3.21s-22.63-4.77-22.63-4.77c.18-2,2.15-3.17,2.28-6.87.14-4.28-2.71-4.7-1.81-11.16.67-4.82,4.32-5.28,5.22-14.76.93-9.79,4.78-13.61,7.74-15.74a16.19,16.19,0,0,1,11.13-3.28s5.16-.85,10.61,3.67c2.81,2.32,6.67,6.76,6.93,16.6.25,9.51,3.86,10.22,4.2,15.07C251.4,108.4,248.53,108.62,248.38,112.9Z" style="fill:#263238"></path><path d="M210,90.86c1.33-2.67,1.39-5.91,1.26-8.86,0-.15-.2-.16-.21,0-.13,2.82-.1,5.75-1.32,8.34-1.05,2.24-2.93,3.8-4.4,5.69a10.3,10.3,0,0,0-2.26,6.12,10,10,0,0,0,.51,3.41,22.55,22.55,0,0,0,1.63,3.12c1.64,3.19-.59,6.47-2.4,8.89,0,0,0,.06,0,0,1.49-1.82,3.08-3.83,3.31-6.37a5.73,5.73,0,0,0-.84-3.42,11.45,11.45,0,0,1-1.53-3.65,9.57,9.57,0,0,1,1.81-7.56C207,94.66,208.86,93.09,210,90.86Z" style="fill:#263238"></path><path d="M252.38,101.65c-.41-2.76-1.79-4.88-3.19-7.13A16.9,16.9,0,0,1,247.45,91a21.61,21.61,0,0,1-.85-4.38c-.18-1.63-.34-3.25-.68-4.85a29.46,29.46,0,0,0-1.47-4.64c0-.07-.12,0-.1,0a32.33,32.33,0,0,1,1.84,9,18.15,18.15,0,0,0,2.08,7.7c1.31,2.27,2.94,4.32,3.51,7,.61,2.85.71,6.39-.82,8.94-1.25,2.08-3.63,4.47-2.49,7.21,0,.09.17,0,.14-.06-.91-3.11,1.83-5.22,3-7.63S252.74,104.14,252.38,101.65Z" style="fill:#263238"></path><path d="M175.18,165.92c-.48,4,3.25,9,8.82,11.51l25.44-21.8c-4.58-.92-9.36-2-12-2.47C185.84,151.3,175.49,163.39,175.18,165.92Z" style="fill:#FFC100"></path><path d="M175.18,165.92c-.48,4,3.25,9,8.82,11.51l25.44-21.8c-4.58-.92-9.36-2-12-2.47C185.84,151.3,175.49,163.39,175.18,165.92Z" style="opacity:0.1"></path><path d="M182.66,187,192,162s-5.51-8.28-.39-16.7c2.59-4.27,19.62-24.63,27.92-29.33,7.79-4.41,15.17.1,18,5,8.16,14.16,6.59,30.18,12.21,69.86Z" style="fill:#FFC100"></path><path d="M229.9,116c-.51,1.17-14,11.14-18.24,8.37-.94-.62,4.74-8.46,4.74-8.46l-.46-11.46,15.4-6.26S230.11,115.51,229.9,116Z" style="fill:#eb9481"></path><path d="M230.81,105.5a21.83,21.83,0,0,1-14.44,9.77l-.44-10.81,15.41-6.27Z" style="fill:#263238"></path><path d="M205.18,84.61c-6.24,17.71,3.66,23.45,7.48,24.79,3.47,1.22,15.43,4.93,23.47-12.05s1.78-25.47-6-28.67S211.42,66.9,205.18,84.61Z" style="fill:#eb9481"></path><path d="M211.58,81.25a11.29,11.29,0,0,0,1.28.19,2.08,2.08,0,0,0,1.35-.06.66.66,0,0,0,.28-.76,1.65,1.65,0,0,0-1.4-.93,2.38,2.38,0,0,0-1.73.28A.71.71,0,0,0,211.58,81.25Z" style="fill:#263238"></path><path d="M223.47,85.83a11.29,11.29,0,0,1-1.1-.69,2.16,2.16,0,0,1-1-.92.67.67,0,0,1,.29-.77,1.64,1.64,0,0,1,1.66.21A2.41,2.41,0,0,1,224.47,85,.72.72,0,0,1,223.47,85.83Z" style="fill:#263238"></path><path d="M219.3,89.35s.07.09,0,.14c-.51,1.17-.89,2.6,0,3.42,0,0,0,.09,0,.07C218.1,92.27,218.63,90.38,219.3,89.35Z" style="fill:#263238"></path><path d="M220.86,88.53c2,.61.59,4.5-1.23,3.94S219.21,88,220.86,88.53Z" style="fill:#263238"></path><path d="M221.55,89c.26.34.46.85.85,1s1-.06,1.41-.35c.05,0,.07,0,.05.07-.25.75-.81,1.41-1.65,1.24s-1.05-1-1-1.81C221.25,89,221.44,88.86,221.55,89Z" style="fill:#263238"></path><path d="M212.28,86.5s-.11,0-.13.08c-.38,1.22-1,2.56-2.25,2.58,0,0-.05.06,0,.07C211.29,89.5,212.12,87.72,212.28,86.5Z" style="fill:#263238"></path><path d="M211.63,84.87c-1.89-.82-3.38,3-1.63,3.79S213.22,85.55,211.63,84.87Z" style="fill:#263238"></path><path d="M210.73,84.81c-.38.09-.83.34-1.2.22s-.58-.67-.69-1.17c0-.06-.06,0-.08,0-.31.73-.36,1.59.29,2s1.32-.07,1.78-.74C210.91,85,210.89,84.77,210.73,84.81Z" style="fill:#263238"></path><path d="M215.48,99.32a1.94,1.94,0,0,1-1.22.47,3.6,3.6,0,0,1-1.26-.65s-.08,0-.07,0a1.73,1.73,0,0,0,1.41,1.07,1.37,1.37,0,0,0,1.25-.85C215.63,99.34,215.54,99.29,215.48,99.32Z" style="fill:#263238"></path><path d="M211.82,93.06s-.82,1.75-1.09,2.6c0,.09.17.19.45.3h0a4.29,4.29,0,0,0,4.45-.28.1.1,0,0,0-.1-.16,6.48,6.48,0,0,1-4.06-.1c0-.26,1.51-2.94,1.37-3a8.07,8.07,0,0,0-2.09-.16c1.61-3.69,3.8-7.08,5.35-10.77a.13.13,0,0,0-.21-.13,65.47,65.47,0,0,0-6.25,11.35C209.46,93.19,211.43,93.1,211.82,93.06Z" style="fill:#263238"></path><path d="M211.55,95.6a5,5,0,0,0,1.26,2.21,2.28,2.28,0,0,0,1.24.61c1,.14,1.39-.7,1.52-1.49a5.46,5.46,0,0,0,.05-1.27A6.51,6.51,0,0,1,211.55,95.6Z" style="fill:#263238"></path><path d="M212.81,97.81a2.28,2.28,0,0,0,1.24.61c1,.14,1.39-.7,1.52-1.49A2.36,2.36,0,0,0,212.81,97.81Z" style="fill:#ff9abb"></path><path d="M221.79,70.12a8.48,8.48,0,0,0-1.12,4.78c.78,4.62,6,4.93,7.18,7s-.3,4.93.68,6.84c1.37,2.64,4.27,2.59,4.19,4.09s-.42,6.24,1.2,7.31,18.29-26.38-5.3-32.06c0,0-2.83-2.22-8.51-1.12-6.27,1.22-11.23,9.6-11.23,9.6S209,76.48,210,76c1.41-.68,2.11-1.48,3.12-1.89,1.58-.65,2.18-.06,3.81-.67A16,16,0,0,0,221.79,70.12Z" style="fill:#263238"></path><path d="M222.52,68.92a16.06,16.06,0,0,0-1.7,3.39,6.84,6.84,0,0,0-.5,3.63,5.06,5.06,0,0,0,2.08,2.85c1,.72,2.19,1.19,3.24,2a3.77,3.77,0,0,1,1.23,1.62,5.26,5.26,0,0,1,.18,2,6.75,6.75,0,0,0,.37,3.62,4.16,4.16,0,0,0,2.75,2.2c1.17.34,2.56.37,3.56,1.22-1.06-.76-2.38-.68-3.63-.93A4.55,4.55,0,0,1,227,88.24a6.85,6.85,0,0,1-.51-3.85,4.53,4.53,0,0,0-.17-1.78,3.17,3.17,0,0,0-1.06-1.34c-.94-.76-2.14-1.26-3.19-2a6.78,6.78,0,0,1-1.4-1.38,4,4,0,0,1-.81-1.83,7.22,7.22,0,0,1,.67-3.82A16.55,16.55,0,0,1,222.52,68.92Z" style="fill:#263238"></path><path d="M221.77,69.86a13.08,13.08,0,0,1-2.05,2.91,6.14,6.14,0,0,1-3.08,1.92,8,8,0,0,1-1.79.17,3,3,0,0,0-1.5.49,8.82,8.82,0,0,1-1.41,1.1,4.08,4.08,0,0,1-1.72.45,4.47,4.47,0,0,0,1.57-.7,8.83,8.83,0,0,0,1.26-1.2,3.08,3.08,0,0,1,1.75-.7,8.93,8.93,0,0,0,1.7-.19,6.61,6.61,0,0,0,2.88-1.68A25.41,25.41,0,0,0,221.77,69.86Z" style="fill:#263238"></path><path d="M232.3,97.35S238,93,240.07,95.17s-3.39,9.38-6.72,9.55a3.17,3.17,0,0,1-3.54-2.9Z" style="fill:#eb9481"></path><path d="M238.44,97.19c.05,0,0,.09,0,.09-2.36.19-4.07,1.78-5.47,3.55a1.75,1.75,0,0,1,2.65.33s0,.12-.09.09a2,2,0,0,0-2.26,0,9.11,9.11,0,0,0-1.5,1.35c-.16.15-.46,0-.33-.25,0,0,0,0,0,0C232.26,99.64,235.5,96.56,238.44,97.19Z" style="fill:#263238"></path><path d="M196.38,154.06s10.33.84,15.62,3a36.75,36.75,0,0,1,14,10.58c4,5,10.39,19.74,6.45,22.31-3.56,2.33-9.29-13.11-9.29-13.11s8.44,14.78,3.63,16.79-10.44-16.28-10.44-16.28,8.33,15.37,3,16.67c-4,1-10-15.31-10-15.31s7.06,13.26,3,14.44c-4.49,1.31-11-13.37-11-13.37-10.84,1.26-16.54-2.8-20.25-6C180.19,173,196.38,154.06,196.38,154.06Z" style="fill:#eb9481"></path><path d="M220.54,171.51c1.05,1.7,2.13,3.41,3,5.2s1.74,3.6,2.47,5.47a34.12,34.12,0,0,1,2.14,7.52c-1.09-4.53-4.21-11-5.11-12.76s-1.7-3.62-2.6-5.4C220.45,171.49,220.51,171.47,220.54,171.51Z" style="fill:#263238"></path><path d="M214,174.64c1.25,2.22,2.57,4.39,3.73,6.67s2,4.54,3,6.88c.08.18,0,.16-.13,0-1.08-2.31-2.26-4.36-3.36-6.65s-2.13-4.63-3.32-6.87C214,174.63,214,174.6,214,174.64Z" style="fill:#263238"></path><path d="M208,176.32A56.53,56.53,0,0,1,212.87,187c.07.18-.08.14-.16-.05-1.57-3.57-2.78-6.38-4.87-10.53C207.8,176.32,207.91,176.25,208,176.32Z" style="fill:#263238"></path><path d="M189.4,152.36c-.65.95-12.05,12-12.78,16.84s13.92-3.32,13.92-3.32Z" style="fill:#FFC100"></path><path d="M225.27,125.18C207,136,177.05,163.2,176.2,170.67c-.62,5.4-.65,10.73,1.48,13.53,4.33,5.7,13.59,5.15,16.87,3.15,14.32-8.75,29.9-28.18,40-48.51C243.49,121,231.23,121.64,225.27,125.18Z" style="fill:#FFC100"></path><path d="M184.52,158.79a144.11,144.11,0,0,1,28.73-25.44l-3.66,3.11c-8.08,7-17.36,15-25.07,22.33Z" style="fill:#263238"></path><path d="M231.62,144.5a133,133,0,0,1-21,29.5q-3.06,3.36-6.41,6.45c-4.42,4.05-9.46,8.67-15.88,8.44a16.21,16.21,0,0,1-8.66-2.8,19.4,19.4,0,0,0,8.65,1.94c6.16,0,11-4.28,15.3-8.22q3.31-3.06,6.43-6.34a143.37,143.37,0,0,0,21.58-29Z" style="fill:#263238"></path><path d="M228.2,150.54a32.27,32.27,0,0,1,3.81-4,10,10,0,0,1-3.81,4Z" style="fill:#263238"></path><path d="M218.05,129.9c4.14-3.59,16-12.08,19.4-3.93.75,2.48.18,5.12-.53,7.5a39,39,0,0,1-4.16,8.92c1.83-4.28,6.53-14.1,2.57-17.9-4.49-3.24-13.27,2.89-17.28,5.41Z" style="opacity:0.1"></path></g><g id="freepik--speech-bubble--inject-75"><path d="M144.45,65.18a25.74,25.74,0,0,0,43,16.29l12.88,1.89L193.9,72.22a25.38,25.38,0,0,0,1.77-12.39,25.75,25.75,0,1,0-51.22,5.35Z" style="fill:#fff"></path><path d="M152.15,43.92a26,26,0,0,1,40.63,5.55,26,26,0,0,1,1.59,22.94l0-.44,6.4,11.16.48.83-.94-.15-12.87-2,.31-.1A26,26,0,0,1,175,88a21.39,21.39,0,0,1-3.56.37,25.15,25.15,0,0,1-3.58-.06,25.78,25.78,0,0,1-6.93-1.66,25.37,25.37,0,0,1-6.21-3.46,23.24,23.24,0,0,1-5-5,25.9,25.9,0,0,1,2.5-34.32Zm-2.43,34.26a29.48,29.48,0,0,0,2.34,2.66,30.85,30.85,0,0,0,2.72,2.27A23.89,23.89,0,0,0,161,86.45,25.47,25.47,0,0,0,167.87,88a24.33,24.33,0,0,0,3.52,0,21.58,21.58,0,0,0,3.5-.42,25.37,25.37,0,0,0,12.33-6.35l.12-.12.18,0,12.9,1.81-.46.68-6.49-11.11-.12-.22.09-.23A25.43,25.43,0,0,0,192,49.92a26.58,26.58,0,0,0-7.71-8.4,25.6,25.6,0,0,0-22.08-3.34,25.56,25.56,0,0,0-17.75,27A25.93,25.93,0,0,0,149.72,78.18Z" style="fill:#263238"></path><polygon points="167.22 77.22 156.22 66.08 159.92 62.44 166.34 68.94 179.69 48.01 184.07 50.81 167.22 77.22" style="fill:#FFC100"></polygon></g></svg>
